<svg width="1340" height="257" viewBox="0 0 1340 257" fill="none" xmlns="http://www.w3.org/2000/svg">
<path d="M294.693 250.732V0H-89.1384V257H422.762V250.732H294.693Z" fill="#1F1E1E"/>
<path d="M444.989 257H603.732V250.732H475.03V126.472H575.272V120.204H475.03V6.2683H603.575V0H444.989V257Z" fill="#1F1E1E"/>
<path d="M655.684 257V6.63702C682.879 6.63702 767.626 17.6987 773.95 160.763V257H803.991V0H773.95V113.567C766.361 75.5882 751.499 47.934 728.731 28.0229C700.587 2.94979 668.649 0 655.684 0H625.643V257H655.684Z" fill="#1F1E1E"/>
<path d="M865.674 257V6.63702C892.869 6.63702 977.616 17.6987 983.941 160.763V257H1013.98V0H983.941V113.567C976.351 75.5882 961.489 47.934 938.721 28.0229C910.578 2.94979 878.639 0 865.674 0H835.633V257H865.674Z" fill="#1F1E1E"/>
<path d="M1075.66 0H1045.62V257H1075.66H1429.14V0H1075.66Z" fill="#1F1E1E"/>
</svg>
